<mxfile host="app.diagrams.net" agent="Mozilla/5.0 (Windows NT 10.0; Win64; x64) AppleWebKit/537.36 (KHTML, like Gecko) Chrome/130.0.0.0 Safari/537.36" version="24.8.4">
  <diagram name="第 1 页" id="IbB0MQsV79tBOPysGqBe">
    <mxGraphModel dx="1434" dy="746" grid="1" gridSize="10" guides="1" tooltips="1" connect="1" arrows="1" fold="1" page="1" pageScale="1" pageWidth="827" pageHeight="1169" math="0" shadow="0">
      <root>
        <mxCell id="0" />
        <mxCell id="1" parent="0" />
        <mxCell id="GuPK13zTEH5kF5k_pR3C-1" value="&lt;font style=&quot;font-size: 16px;&quot;&gt;ESP32-C3&lt;/font&gt;" style="rounded=0;whiteSpace=wrap;html=1;fillColor=#002954;strokeColor=none;fontColor=#FFFFFF;" vertex="1" parent="1">
          <mxGeometry x="130" y="560" width="440" height="55" as="geometry" />
        </mxCell>
        <mxCell id="GuPK13zTEH5kF5k_pR3C-2" value="&lt;font style=&quot;font-size: 16px;&quot;&gt;OTA&lt;/font&gt;" style="rounded=0;whiteSpace=wrap;html=1;strokeColor=none;fillColor=#002954;fontColor=#FFFFFF;" vertex="1" parent="1">
          <mxGeometry x="130" y="480" width="120" height="50" as="geometry" />
        </mxCell>
        <mxCell id="GuPK13zTEH5kF5k_pR3C-3" value="&lt;font style=&quot;font-size: 16px;&quot;&gt;AWS IoT接入&lt;/font&gt;" style="rounded=0;whiteSpace=wrap;html=1;strokeColor=none;fillColor=#002954;fontColor=#FFFFFF;" vertex="1" parent="1">
          <mxGeometry x="270" y="480" width="120" height="50" as="geometry" />
        </mxCell>
        <mxCell id="GuPK13zTEH5kF5k_pR3C-4" value="&lt;font style=&quot;font-size: 16px;&quot;&gt;OnBoarding&lt;/font&gt;" style="rounded=0;whiteSpace=wrap;html=1;strokeColor=none;fillColor=#002954;fontColor=#FFFFFF;" vertex="1" parent="1">
          <mxGeometry x="420" y="480" width="120" height="50" as="geometry" />
        </mxCell>
        <mxCell id="GuPK13zTEH5kF5k_pR3C-5" value="&lt;font style=&quot;font-size: 16px;&quot;&gt;AWS IoT&lt;/font&gt;&lt;div&gt;&lt;font style=&quot;font-size: 16px;&quot;&gt;消息收发&lt;/font&gt;&lt;/div&gt;" style="rounded=0;whiteSpace=wrap;html=1;strokeColor=none;fillColor=#002954;fontColor=#FFFFFF;" vertex="1" parent="1">
          <mxGeometry x="130" y="410" width="120" height="50" as="geometry" />
        </mxCell>
        <mxCell id="GuPK13zTEH5kF5k_pR3C-6" value="&lt;span style=&quot;font-size: 16px;&quot;&gt;Shadow&lt;/span&gt;" style="rounded=0;whiteSpace=wrap;html=1;strokeColor=none;fillColor=#002954;fontColor=#FFFFFF;" vertex="1" parent="1">
          <mxGeometry x="270" y="410" width="120" height="50" as="geometry" />
        </mxCell>
        <mxCell id="GuPK13zTEH5kF5k_pR3C-7" value="&lt;span style=&quot;font-size: 16px;&quot;&gt;Config&lt;/span&gt;" style="rounded=0;whiteSpace=wrap;html=1;strokeColor=none;fillColor=#002954;fontColor=#FFFFFF;" vertex="1" parent="1">
          <mxGeometry x="420" y="410" width="120" height="50" as="geometry" />
        </mxCell>
      </root>
    </mxGraphModel>
  </diagram>
</mxfile>
